<svg width="67.033005" height="27.509415" viewBox="0 0 67.033 27.5094" fill="none" xmlns="http://www.w3.org/2000/svg" xmlns:xlink="http://www.w3.org/1999/xlink">
	<desc>
			Created with Pixso.
	</desc>
	<defs/>
	<path id="brix" d="M38.0847 3.25341C38.0847 5.13316 39.5307 6.50683 41.4465 6.50683C43.3625 6.50683 44.8446 5.13316 44.8446 3.25341C44.8446 1.37366 43.3625 0 41.4465 0C39.5307 0 38.0847 1.37366 38.0847 3.25341ZM5.78384 24.5452L5.78384 27.0756L0 27.0756L0 1.22906L6.28993 1.22906L6.28993 10.5555C7.55515 8.63962 9.5795 8.02509 11.3508 8.02509C16.5563 8.02509 20.0989 12.2545 20.0989 17.7853C20.0989 23.5692 16.1586 27.5094 11.5315 27.5094C9.97713 27.5094 7.22981 26.9672 5.78384 24.5452ZM34.7593 8.02509C35.2292 8.02509 35.6268 8.06123 35.916 8.16968L35.916 14.1343C35.6268 13.9897 35.1569 13.9174 34.5062 13.9174C31.3251 13.9174 29.5538 16.3394 29.5538 20.2435L29.5538 27.0756L23.2639 27.0756L23.2639 8.45887L29.5177 8.45887L29.5177 11.64C30.4937 9.3626 32.3011 8.02509 34.7593 8.02509ZM38.3377 27.0756L44.6277 27.0756L44.6277 8.45887L38.3377 8.45887L38.3377 27.0756ZM46.8618 27.0756L53.2602 17.8576L46.7173 8.45887L53.8748 8.45887L56.8751 13.6282L59.8755 8.45887L67.033 8.45887L60.49 17.8576L66.8884 27.0756L59.9117 27.0756L56.8751 22.1594L53.8386 27.0756L46.8618 27.0756ZM10.0133 13.5197C7.8082 13.5197 6.14534 15.1103 6.14534 17.713C6.14534 20.3519 7.8082 22.0148 10.0133 22.0148C12.0738 22.0148 13.7728 20.3158 13.7728 17.713C13.7728 15.1103 12.0738 13.5197 10.0133 13.5197Z" fill="#170F49" fill-opacity="1.000000" fill-rule="evenodd"/>
</svg>
