<svg width="59" height="58" viewBox="0 0 59 58" fill="none" xmlns="http://www.w3.org/2000/svg">
<circle opacity="0.15" cx="29.5282" cy="28.648" r="28.6221" fill="#4A3AFF"/>
<rect x="14.6656" y="16.1696" width="29.2446" height="24.1959" fill="white"/>
<path d="M13.4369 38.3686C13.4369 39.4354 13.8607 40.4586 14.6151 41.213C15.3694 41.9673 16.3926 42.3911 17.4594 42.3911H41.5948C42.6616 42.3911 43.6848 41.9673 44.4391 41.213C45.1935 40.4586 45.6173 39.4354 45.6173 38.3686V18.9262C45.6173 17.8594 45.1935 16.8362 44.4391 16.0819C43.6848 15.3275 42.6616 14.9037 41.5948 14.9037H17.4594C16.3926 14.9037 15.3694 15.3275 14.6151 16.0819C13.8607 16.8362 13.4369 17.8594 13.4369 18.9262V38.3686ZM32.8792 18.2558C32.873 18.494 32.8016 18.7258 32.6727 18.9262C32.5609 19.1292 32.3966 19.2984 32.1971 19.4162C31.9976 19.5341 31.7701 19.5963 31.5384 19.5963C31.3067 19.5963 31.0792 19.5341 30.8797 19.4162C30.6801 19.2984 30.5159 19.1292 30.404 18.9262C30.2752 18.7258 30.2038 18.494 30.1975 18.2558C30.2036 18.0176 30.275 17.7857 30.404 17.5854C30.5159 17.3824 30.6801 17.2132 30.8797 17.0954C31.0792 16.9775 31.3067 16.9154 31.5384 16.9154C31.7701 16.9154 31.9976 16.9775 32.1971 17.0954C32.3966 17.2132 32.5609 17.3824 32.6727 17.5854C32.8017 17.7857 32.8732 18.0176 32.8792 18.2558ZM37.5722 18.2558C37.566 18.494 37.4945 18.7258 37.3657 18.9262C37.2539 19.1292 37.0896 19.2984 36.8901 19.4162C36.6906 19.5341 36.4631 19.5963 36.2314 19.5963C35.9996 19.5963 35.7722 19.5341 35.5726 19.4162C35.3731 19.2984 35.2089 19.1292 35.097 18.9262C34.9682 18.7258 34.8968 18.494 34.8905 18.2558C34.8966 18.0176 34.968 17.7857 35.097 17.5854C35.2089 17.3824 35.3731 17.2132 35.5726 17.0954C35.7722 16.9775 35.9996 16.9154 36.2314 16.9154C36.4631 16.9154 36.6906 16.9775 36.8901 17.0954C37.0896 17.2132 37.2539 17.3824 37.3657 17.5854C37.4947 17.7857 37.5662 18.0176 37.5722 18.2558ZM42.2652 18.2558C42.2589 18.494 42.1875 18.7258 42.0587 18.9262C41.9468 19.1292 41.7826 19.2984 41.5831 19.4162C41.3836 19.5341 41.1561 19.5963 40.9243 19.5963C40.6926 19.5963 40.4651 19.5341 40.2656 19.4162C40.0661 19.2984 39.9018 19.1292 39.79 18.9262C39.6612 18.7258 39.5898 18.494 39.5835 18.2558C39.5896 18.0176 39.661 17.7857 39.79 17.5854C39.9036 17.3839 40.0683 17.2159 40.2674 17.0983C40.4665 16.9806 40.6931 16.9174 40.9243 16.915C41.182 16.9161 41.4338 16.9915 41.6497 17.132C41.8656 17.2726 42.0365 17.4723 42.1418 17.7074C42.2218 17.8793 42.2638 18.0663 42.2652 18.2558ZM16.1186 21.9418C16.1186 21.8529 16.1539 21.7676 16.2168 21.7048C16.2796 21.6419 16.3649 21.6066 16.4538 21.6066H42.6004C42.6893 21.6066 42.7746 21.6419 42.8374 21.7048C42.9003 21.7676 42.9356 21.8529 42.9356 21.9418V38.3672C42.9356 38.7229 42.7944 39.0639 42.5429 39.3154C42.2914 39.5668 41.9504 39.7081 41.5948 39.7081H17.4594C17.1038 39.7081 16.7628 39.5668 16.5113 39.3154C16.2599 39.0639 16.1186 38.7229 16.1186 38.3672V21.9418Z" fill="#4A3AFF"/>
<path d="M22.5458 34.6235C22.7972 34.8748 23.1382 35.016 23.4938 35.016C23.8493 35.016 24.1903 34.8748 24.4417 34.6235L27.7939 31.2713C28.0452 31.0199 28.1865 30.6789 28.1865 30.3234C28.1865 29.9678 28.0452 29.6268 27.7939 29.3754L24.4417 26.0232C24.1889 25.779 23.8502 25.6438 23.4986 25.6469C23.147 25.65 22.8107 25.791 22.5621 26.0396C22.3135 26.2882 22.1725 26.6245 22.1694 26.9761C22.1664 27.3276 22.3015 27.6663 22.5458 27.9192L24.7126 30.086C24.7438 30.1172 24.7686 30.1542 24.7855 30.1949C24.8024 30.2356 24.8111 30.2793 24.8111 30.3234C24.8111 30.3674 24.8024 30.4111 24.7855 30.4518C24.7686 30.4926 24.7438 30.5295 24.7126 30.5607L22.5458 32.7275C22.2944 32.9789 22.1532 33.3199 22.1532 33.6755C22.1532 34.031 22.2944 34.372 22.5458 34.6235Z" fill="#4A3AFF"/>
<path d="M30.8693 35.0167H36.2327C36.5883 35.0167 36.9294 34.8754 37.1808 34.6239C37.4323 34.3725 37.5736 34.0314 37.5736 33.6758C37.5736 33.3202 37.4323 32.9791 37.1808 32.7277C36.9294 32.4762 36.5883 32.335 36.2327 32.335H30.8693C30.5137 32.335 30.1726 32.4762 29.9212 32.7277C29.6697 32.9791 29.5284 33.3202 29.5284 33.6758C29.5284 34.0314 29.6697 34.3725 29.9212 34.6239C30.1726 34.8754 30.5137 35.0167 30.8693 35.0167Z" fill="#4A3AFF"/>
</svg>
