<svg width="23" height="23" viewBox="0 0 23 23" fill="none" xmlns="http://www.w3.org/2000/svg">
<rect width="23" height="23" fill="#E5E5E5"/>
<g clip-path="url(#clip0_1_5)">
<rect width="1440" height="3202" transform="translate(-454 -544)" fill="white"/>
<g filter="url(#filter0_b_1_5)">
<circle cx="-379.403" cy="149.343" r="393.819" fill="white" fill-opacity="0.79"/>
</g>
<path d="M11.6689 22.3691C17.7442 22.3691 22.6689 17.4444 22.6689 11.3691C22.6689 5.29384 17.7442 0.369141 11.6689 0.369141C5.59365 0.369141 0.668945 5.29384 0.668945 11.3691C0.668945 17.4444 5.59365 22.3691 11.6689 22.3691Z" fill="#4A3AFF"/>
<path d="M6.16895 11.9191L9.46895 15.2191L17.1689 7.5191" stroke="white" stroke-width="1.5" stroke-linecap="round" stroke-linejoin="round"/>
<g filter="url(#filter1_d_1_5)">
<rect x="-33" y="-102.494" width="599.392" height="77.8635" rx="38.9318" fill="white"/>
<rect x="-32.5" y="-101.994" width="598.392" height="76.8635" rx="38.4318" stroke="#EFF0F7"/>
</g>
</g>
<defs>
<filter id="filter0_b_1_5" x="-913.349" y="-384.602" width="1067.89" height="1067.89" filterUnits="userSpaceOnUse" color-interpolation-filters="sRGB">
<feFlood flood-opacity="0" result="BackgroundImageFix"/>
<feGaussianBlur in="BackgroundImageFix" stdDeviation="70.063"/>
<feComposite in2="SourceAlpha" operator="in" result="effect1_backgroundBlur_1_5"/>
<feBlend mode="normal" in="SourceGraphic" in2="effect1_backgroundBlur_1_5" result="shape"/>
</filter>
<filter id="filter1_d_1_5" x="-58" y="-119.494" width="649.392" height="127.864" filterUnits="userSpaceOnUse" color-interpolation-filters="sRGB">
<feFlood flood-opacity="0" result="BackgroundImageFix"/>
<feColorMatrix in="SourceAlpha" type="matrix" values="0 0 0 0 0 0 0 0 0 0 0 0 0 0 0 0 0 0 127 0" result="hardAlpha"/>
<feOffset dy="8"/>
<feGaussianBlur stdDeviation="12.5"/>
<feColorMatrix type="matrix" values="0 0 0 0 0.0511524 0 0 0 0 0.0405729 0 0 0 0 0.170833 0 0 0 0.06 0"/>
<feBlend mode="normal" in2="BackgroundImageFix" result="effect1_dropShadow_1_5"/>
<feBlend mode="normal" in="SourceGraphic" in2="effect1_dropShadow_1_5" result="shape"/>
</filter>
<clipPath id="clip0_1_5">
<rect width="1440" height="3202" fill="white" transform="translate(-454 -544)"/>
</clipPath>
</defs>
</svg>
