<svg width="23" height="29" viewBox="0 0 23 29" fill="none" xmlns="http://www.w3.org/2000/svg">
<rect width="23" height="29" fill="#E5E5E5"/>
<g clip-path="url(#clip0_1_5)">
<rect width="1440" height="1343" transform="translate(-657 -680)" fill="white"/>
<g filter="url(#filter0_d_1_5)">
<rect x="-286.297" y="-331.102" width="698" height="606" rx="34" fill="white"/>
<rect x="-285.797" y="-330.602" width="697" height="605" rx="33.5" stroke="#EFF0F7"/>
</g>
<g filter="url(#filter1_d_1_5)">
<rect x="-240.039" y="-18.4741" width="284" height="66" rx="33" fill="white"/>
<rect x="-239.539" y="-17.9741" width="283" height="65" rx="32.5" stroke="#EFF0F7"/>
</g>
<path d="M11.5629 14.2939C15.0647 14.2939 17.9034 11.4552 17.9034 7.95337C17.9034 4.45156 15.0647 1.61279 11.5629 1.61279C8.06106 1.61279 5.22229 4.45156 5.22229 7.95337C5.22229 11.4552 8.06106 14.2939 11.5629 14.2939Z" stroke="#A0A3BD" stroke-width="1.6" stroke-linecap="round" stroke-linejoin="round"/>
<path d="M1.41797 27.4384C1.41797 24.7478 2.4868 22.1674 4.38935 20.2648C6.29189 18.3623 8.87229 17.2935 11.5629 17.2935C14.2535 17.2935 16.8339 18.3623 18.7364 20.2648C20.639 22.1674 21.7078 24.7478 21.7078 27.4384" stroke="#A0A3BD" stroke-width="1.6" stroke-linecap="round" stroke-linejoin="round"/>
</g>
<defs>
<filter id="filter0_d_1_5" x="-302.297" y="-342.102" width="730" height="638" filterUnits="userSpaceOnUse" color-interpolation-filters="sRGB">
<feFlood flood-opacity="0" result="BackgroundImageFix"/>
<feColorMatrix in="SourceAlpha" type="matrix" values="0 0 0 0 0 0 0 0 0 0 0 0 0 0 0 0 0 0 127 0" result="hardAlpha"/>
<feOffset dy="5"/>
<feGaussianBlur stdDeviation="8"/>
<feColorMatrix type="matrix" values="0 0 0 0 0.0323264 0 0 0 0 0.0598209 0 0 0 0 0.204167 0 0 0 0.06 0"/>
<feBlend mode="normal" in2="BackgroundImageFix" result="effect1_dropShadow_1_5"/>
<feBlend mode="normal" in="SourceGraphic" in2="effect1_dropShadow_1_5" result="shape"/>
</filter>
<filter id="filter1_d_1_5" x="-246.039" y="-22.4741" width="296" height="78" filterUnits="userSpaceOnUse" color-interpolation-filters="sRGB">
<feFlood flood-opacity="0" result="BackgroundImageFix"/>
<feColorMatrix in="SourceAlpha" type="matrix" values="0 0 0 0 0 0 0 0 0 0 0 0 0 0 0 0 0 0 127 0" result="hardAlpha"/>
<feOffset dy="2"/>
<feGaussianBlur stdDeviation="3"/>
<feColorMatrix type="matrix" values="0 0 0 0 0.0726778 0 0 0 0 0.0688889 0 0 0 0 0.258333 0 0 0 0.07 0"/>
<feBlend mode="normal" in2="BackgroundImageFix" result="effect1_dropShadow_1_5"/>
<feBlend mode="normal" in="SourceGraphic" in2="effect1_dropShadow_1_5" result="shape"/>
</filter>
<clipPath id="clip0_1_5">
<rect width="1440" height="1343" fill="white" transform="translate(-657 -680)"/>
</clipPath>
</defs>
</svg>
