<svg width="17" height="29" viewBox="0 0 17 29" fill="none" xmlns="http://www.w3.org/2000/svg">
<rect width="17" height="29" fill="#E5E5E5"/>
<g clip-path="url(#clip0_1_5)">
<rect width="1440" height="1343" transform="translate(-665 -827)" fill="white"/>
<g filter="url(#filter0_d_1_5)">
<rect x="-294.297" y="-478.102" width="698" height="606" rx="34" fill="white"/>
<rect x="-293.797" y="-477.602" width="697" height="605" rx="33.5" stroke="#EFF0F7"/>
</g>
<g filter="url(#filter1_d_1_5)">
<rect x="-248.039" y="-18.4883" width="284" height="66" rx="33" fill="white"/>
<rect x="-247.539" y="-17.9883" width="283" height="65" rx="32.5" stroke="#EFF0F7"/>
</g>
<path d="M13.2434 1.51172H3.06946C1.82082 1.51172 0.808594 2.52394 0.808594 3.77259V25.2508C0.808594 26.4995 1.82082 27.5117 3.06946 27.5117H13.2434C14.492 27.5117 15.5042 26.4995 15.5042 25.2508V3.77259C15.5042 2.52394 14.492 1.51172 13.2434 1.51172Z" stroke="#A0A3BD" stroke-width="1.6" stroke-linecap="round" stroke-linejoin="round"/>
<path d="M11.8595 1.51172V2.99295C11.8595 3.38579 11.7035 3.76255 11.4257 4.04033C11.1479 4.31812 10.7711 4.47418 10.3783 4.47418H5.9346C5.54175 4.47418 5.165 4.31812 4.88721 4.04033C4.60943 3.76255 4.45337 3.38579 4.45337 2.99295V1.51172" stroke="#A0A3BD" stroke-width="1.6" stroke-linecap="round" stroke-linejoin="round"/>
</g>
<defs>
<filter id="filter0_d_1_5" x="-310.297" y="-489.102" width="730" height="638" filterUnits="userSpaceOnUse" color-interpolation-filters="sRGB">
<feFlood flood-opacity="0" result="BackgroundImageFix"/>
<feColorMatrix in="SourceAlpha" type="matrix" values="0 0 0 0 0 0 0 0 0 0 0 0 0 0 0 0 0 0 127 0" result="hardAlpha"/>
<feOffset dy="5"/>
<feGaussianBlur stdDeviation="8"/>
<feColorMatrix type="matrix" values="0 0 0 0 0.0323264 0 0 0 0 0.0598209 0 0 0 0 0.204167 0 0 0 0.06 0"/>
<feBlend mode="normal" in2="BackgroundImageFix" result="effect1_dropShadow_1_5"/>
<feBlend mode="normal" in="SourceGraphic" in2="effect1_dropShadow_1_5" result="shape"/>
</filter>
<filter id="filter1_d_1_5" x="-254.039" y="-22.4883" width="296" height="78" filterUnits="userSpaceOnUse" color-interpolation-filters="sRGB">
<feFlood flood-opacity="0" result="BackgroundImageFix"/>
<feColorMatrix in="SourceAlpha" type="matrix" values="0 0 0 0 0 0 0 0 0 0 0 0 0 0 0 0 0 0 127 0" result="hardAlpha"/>
<feOffset dy="2"/>
<feGaussianBlur stdDeviation="3"/>
<feColorMatrix type="matrix" values="0 0 0 0 0.0726778 0 0 0 0 0.0688889 0 0 0 0 0.258333 0 0 0 0.07 0"/>
<feBlend mode="normal" in2="BackgroundImageFix" result="effect1_dropShadow_1_5"/>
<feBlend mode="normal" in="SourceGraphic" in2="effect1_dropShadow_1_5" result="shape"/>
</filter>
<clipPath id="clip0_1_5">
<rect width="1440" height="1343" fill="white" transform="translate(-665 -827)"/>
</clipPath>
</defs>
</svg>
