<svg width="173.603760" height="33.076363" viewBox="0 0 173.604 33.0764" fill="none" xmlns="http://www.w3.org/2000/svg" xmlns:xlink="http://www.w3.org/1999/xlink">
	<desc>
			Created with Pixso.
	</desc>
	<defs/>
	<path id="templates" d="M99.9476 26.2803C96.0435 26.2803 93.8022 24.1837 93.8022 20.2796L93.8022 0L100.092 0L100.092 19.1228C100.092 19.9904 100.201 20.8941 101.647 20.8941C101.972 20.8941 102.406 20.858 102.876 20.6773L102.876 25.7381C102.189 26.0635 101.213 26.2803 99.9476 26.2803ZM2.38583 12.1099L0 12.1099L0 7.2298L2.56657 7.2298L2.56657 2.20509L8.67577 2.20509L8.67577 7.2298L12.616 7.2298L12.616 12.1099L8.67577 12.1099L8.67577 18.5083C8.67577 20.0989 9.54335 20.7857 10.7001 20.7857C11.4592 20.7857 12.363 20.6411 13.1221 20.0989L13.1221 25.4128C12.1461 25.8827 10.7363 26.2803 8.89267 26.2803C4.84396 26.2803 2.38583 23.8945 2.38583 19.5566L2.38583 12.1099ZM125.907 12.1099L123.521 12.1099L123.521 7.2298L126.088 7.2298L126.088 2.20509L132.197 2.20509L132.197 7.2298L136.137 7.2298L136.137 12.1099L132.197 12.1099L132.197 18.5083C132.197 20.0989 133.064 20.7857 134.221 20.7857C134.98 20.7857 135.884 20.6411 136.643 20.0989L136.643 25.4128C135.667 25.8827 134.257 26.2803 132.414 26.2803C128.365 26.2803 125.907 23.8945 125.907 19.5566L125.907 12.1099ZM32.8208 15.3633C32.8208 16.3394 32.64 17.46 32.4593 18.0384L20.6747 18.0384C20.9639 20.135 22.9883 21.0387 25.121 21.0387C27.1454 21.0387 28.6275 20.1712 29.5312 19.3036L32.7123 23.28C30.2542 25.4851 27.7961 26.2803 24.6511 26.2803C18.2889 26.2803 14.204 22.0509 14.204 16.5563C14.204 11.0616 18.3973 6.79602 23.892 6.79602C29.2059 6.79602 32.8208 10.2663 32.8208 15.3633ZM35.9124 25.8466L35.9124 7.2298L41.9131 7.2298L41.9131 9.4349C43.1783 7.55515 44.9496 6.79602 47.1547 6.79602C49.902 6.79602 51.9264 7.84434 53.1916 9.83254C54.4568 8.20583 56.1558 6.79602 59.3008 6.79602C63.8194 6.79602 66.4944 9.68794 66.4944 14.4958L66.4944 25.8466L60.2045 25.8466L60.2045 15.6164C60.2045 13.4474 59.1924 12.2907 57.3126 12.2907C55.6136 12.2907 54.3484 13.7366 54.3484 16.0502L54.3484 25.8466L48.0584 25.8466L48.0584 15.6164C48.0584 13.4474 47.0463 12.2907 45.1665 12.2907C43.3952 12.2907 42.2023 13.7366 42.2023 16.0502L42.2023 25.8466L35.9124 25.8466ZM77.0452 33.0764L70.7552 33.0764L70.7552 7.2298L76.5391 7.2298L76.5391 9.76024C78.0935 7.33826 80.6601 6.79602 82.1783 6.79602C86.8054 6.79602 90.8541 10.7363 90.8541 16.5201C90.8541 22.0509 87.3115 26.2803 82.106 26.2803C80.3347 26.2803 78.2381 25.7743 77.0452 24.0391L77.0452 33.0764ZM115.46 23.7861C114.737 25.1959 113.11 26.2803 110.652 26.2803C107.037 26.2803 104.398 23.9668 104.398 20.6773C104.398 17.9299 106.567 16.0502 110.471 15.2187L115.279 14.2789L115.279 14.2427C115.279 12.6883 113.942 12.1461 112.387 12.1461C110.255 12.1461 108.736 13.2305 107.76 14.3512L104.471 10.4109C106.061 8.38657 109.062 6.79602 112.713 6.79602C118.099 6.79602 121.28 9.57949 121.28 14.2066L121.28 25.8466L115.46 25.8466L115.46 23.7861ZM156.342 15.3633C156.342 16.3394 156.161 17.46 155.98 18.0384L144.196 18.0384C144.485 20.135 146.509 21.0387 148.642 21.0387C150.666 21.0387 152.148 20.1712 153.052 19.3036L156.233 23.28C153.775 25.4851 151.317 26.2803 148.172 26.2803C141.81 26.2803 137.725 22.0509 137.725 16.5563C137.725 11.0616 141.918 6.79602 147.413 6.79602C152.727 6.79602 156.342 10.2663 156.342 15.3633ZM173.604 20.3881C173.604 23.7138 170.495 26.2803 165.868 26.2803C162.398 26.2803 159.289 24.7621 157.734 22.0148L161.747 18.9421C162.614 20.4242 164.06 21.581 165.94 21.581C167.205 21.581 167.892 21.2195 167.892 20.5327C167.892 19.5566 166.627 19.2313 164.06 18.3276C160.409 17.0262 158.349 15.5441 158.349 12.5437C158.349 8.82037 161.855 6.79602 166.049 6.79602C169.23 6.79602 171.941 8.35043 173.098 10.5555L169.194 13.3751C168.579 12.3268 167.603 11.4954 165.868 11.4954C164.892 11.4954 164.06 11.893 164.06 12.5799C164.06 13.2667 165.181 13.4474 167.82 14.5681C170.748 15.7248 173.604 16.7009 173.604 20.3881ZM26.7477 14.3873C26.6393 12.7968 25.3741 11.7846 23.7474 11.7846C22.1207 11.7846 20.6747 12.7245 20.5663 14.4235L26.7477 14.4235L26.7477 14.3873ZM150.269 14.3873C150.16 12.7968 148.895 11.7846 147.268 11.7846C145.642 11.7846 144.196 12.7245 144.087 14.4235L150.269 14.4235L150.269 14.3873ZM80.7685 12.2907C78.5634 12.2907 76.9006 13.9535 76.9006 16.5924C76.9006 19.1951 78.5634 20.7857 80.7685 20.7857C82.829 20.7857 84.528 19.1951 84.528 16.5924C84.528 13.9897 82.829 12.2907 80.7685 12.2907ZM115.279 18.3637L115.279 18.0745L112.243 18.6529C111.122 18.9059 110.399 19.3759 110.399 20.2796C110.399 21.1833 111.014 21.7617 112.134 21.7617C114.122 21.7617 115.279 20.4242 115.279 18.3637Z" fill="#4A3AFF" fill-opacity="1.000000" fill-rule="evenodd"/>
</svg>
